HIERARCHY
ROOT Hips
{
	OFFSET 0.000000 0.000000 0.000000
	CHANNELS 6 Xposition Yposition Zposition Zrotation Yrotation Xrotation 
	JOINT LHipJoint
	{
		OFFSET 0.000000 0.000000 0.000000
		CHANNELS 3 Zrotation Yrotation Xrotation
		JOINT LeftUpLeg
		{
			OFFSET 1.363060 -1.794630 0.839290
			CHANNELS 3 Zrotation Yrotation Xrotation
			JOINT LeftLeg
			{
				OFFSET 2.448110 -6.726130 0.000000
				CHANNELS 3 Zrotation Yrotation Xrotation
				JOINT LeftFoot
				{
					OFFSET 2.562200 -7.039590 0.000000
					CHANNELS 3 Zrotation Yrotation Xrotation
					JOINT LeftToeBase
					{
						OFFSET 0.157640 -0.433110 2.322550
						CHANNELS 3 Zrotation Yrotation Xrotation
						End Site
						{
							OFFSET 0.000000 0.000000 0.000000
						}
					}
				}
			}
		}
	}
	JOINT RHipJoint
	{
		OFFSET 0.000000 0.000000 0.000000
		CHANNELS 3 Zrotation Yrotation Xrotation
		JOINT RightUpLeg
		{
			OFFSET -1.305520 -1.794630 0.839290
			CHANNELS 3 Zrotation Yrotation Xrotation
			JOINT RightLeg
			{
				OFFSET -2.542530 -6.985550 0.000000
				CHANNELS 3 Zrotation Yrotation Xrotation
				JOINT RightFoot
				{
					OFFSET -2.568260 -7.056230 0.000000
					CHANNELS 3 Zrotation Yrotation Xrotation
					JOINT RightToeBase
					{
						OFFSET -0.164730 -0.452590 2.363150
						CHANNELS 3 Zrotation Yrotation Xrotation
						End Site
						{
							OFFSET 0.000000 0.000000 0.000000
						}
					}
				}
			}
		}
	}
}
MOTION
Frames: 13
Frame Time: 0.008333
1.007972 17.155833 1.807237 17.065739 -35.543923 -4.957208 -7.978518 1.140733 6.837323 -17.091355 -21.723528 -10.804956 -4.293617 -0.752075 1.601182 -1.197436 -9.258296 11.332832 -2.127200 0.000000 -41.742700 12.689593 0.414207 -5.298707 -19.211954 -40.087875 6.811751 0.060717 0.230305 0.742284 -4.144559 -26.206552 8.403910 -8.727400 -0.000000 -63.218400
1.011387 17.147965 1.796841 17.292136 -35.242091 -5.383109 -8.052011 1.063911 6.794799 -17.428357 -21.500629 -10.230872 -4.346809 -0.796049 1.226150 -1.211705 -9.306917 11.434575 -2.142800 0.000000 -41.456801 12.620582 0.393483 -5.304728 -19.610190 -40.321187 7.093450 0.038933 0.193247 0.873314 -4.187739 -26.370248 8.254755 -8.711400 0.000000 -63.092300
1.014535 17.142227 1.786386 17.584316 -35.118133 -5.761391 -8.153807 0.976485 6.732952 -17.715007 -21.272016 -9.774925 -4.387314 -0.839519 0.872748 -1.217504 -9.244005 11.532893 -2.126901 0.000000 -41.173500 12.532891 0.376076 -5.286701 -19.840449 -40.312583 7.191267 0.005086 0.155602 0.997564 -4.253607 -26.612948 8.036391 -8.701499 0.000000 -62.828500
1.015993 17.138922 1.775987 17.924082 -35.117473 -6.071467 -8.271122 0.883917 6.663922 -17.945409 -21.077257 -9.456820 -4.416388 -0.879184 0.561286 -1.217212 -9.106093 11.638004 -2.091600 -0.000000 -40.905600 12.436710 0.362689 -5.249015 -19.914380 -40.097239 7.132131 -0.039204 0.120290 1.105432 -4.339434 -26.934470 7.773399 -8.706700 -0.000001 -62.440300
1.014381 17.138052 1.766032 18.266343 -35.184424 -6.296128 -8.378436 0.796893 6.609475 -18.111517 -20.952852 -9.280892 -4.437002 -0.913443 0.306116 -1.213839 -8.928934 11.755800 -2.047700 -0.000000 -40.661100 12.352874 0.348735 -5.188025 -19.854698 -39.736120 6.954072 -0.090069 0.091512 1.188289 -4.438503 -27.317825 7.494176 -8.731200 -0.000000 -61.965000
1.008959 17.138678 1.756574 18.560324 -35.245493 -6.436216 -8.445951 0.722910 6.588080 -18.220026 -20.933178 -9.216802 -4.455497 -0.942927 0.117173 -1.210871 -8.740988 11.884008 -2.001999 0.000000 -40.466900 12.305291 0.328822 -5.106367 -19.726475 -39.337593 6.721918 -0.139783 0.070267 1.252395 -4.537064 -27.704548 7.219956 -8.758800 0.000000 -61.471000
1.000406 17.139785 1.746619 18.802287 -35.239731 -6.511636 -8.475277 0.655493 6.593552 -18.289817 -21.038492 -9.220597 -4.474145 -0.966020 -0.004462 -1.209053 -8.558921 12.023032 -1.959100 0.000000 -40.333500 12.288422 0.309864 -5.030422 -19.607947 -38.996090 6.508366 -0.182391 0.052770 1.306423 -4.623988 -28.042379 6.970488 -8.776100 0.000000 -61.026100
0.989212 17.141187 1.735823 18.993095 -35.133485 -6.532569 -8.476539 0.589007 6.621729 -18.326180 -21.273574 -9.265601 -4.492494 -0.981680 -0.067927 -1.208498 -8.395029 12.177576 -1.923201 -0.000000 -40.254300 12.290443 0.294890 -4.978371 -19.534335 -38.772353 6.353458 -0.213129 0.036843 1.345763 -4.692848 -28.306855 6.769981 -8.784200 0.000000 -60.675000
0.975691 17.142888 1.724410 19.134814 -34.931779 -6.505934 -8.456400 0.526307 6.672573 -18.329371 -21.628549 -9.337350 -4.508619 -0.989328 -0.093833 -1.208143 -8.253395 12.347106 -1.896700 -0.000000 -40.217700 12.302568 0.290614 -4.961120 -19.520022 -38.707173 6.272311 -0.227875 0.024893 1.361468 -4.737832 -28.478911 6.636125 -8.784899 -0.000000 -60.448100
0.960506 17.145147 1.712753 19.224041 -34.647226 -6.435014 -8.423977 0.467810 6.742659 -18.294940 -22.079340 -9.422889 -4.520422 -0.989700 -0.101366 -1.207236 -8.133967 12.530637 -1.879600 0.000000 -40.205300 12.315889 0.296588 -4.982908 -19.557311 -38.814367 6.266496 -0.224187 0.017628 1.344498 -4.757456 -28.557797 6.580863 -8.784400 -0.000000 -60.353700
0.944712 17.148257 1.701084 19.253953 -34.297140 -6.325516 -8.388170 0.412624 6.824929 -18.218796 -22.590556 -9.506257 -4.526532 -0.984682 -0.106488 -1.205312 -8.031158 12.725260 -1.869900 0.000000 -40.197300 12.323670 0.307173 -5.042599 -19.628420 -39.085750 6.331040 -0.201613 0.014012 1.290839 -4.753519 -28.554380 6.606677 -8.788200 -0.000000 -60.382600
0.929297 17.152122 1.689783 19.217628 -33.911505 -6.185813 -8.350405 0.364738 6.915126 -18.101576 -23.124640 -9.573081 -4.526942 -0.977096 -0.124313 -1.201809 -7.932562 12.921083 -1.862200 0.000000 -40.180800 12.326416 0.317798 -5.133221 -19.718281 -39.506194 6.451723 -0.160240 0.014454 1.204496 -4.727291 -28.473226 6.703565 -8.793500 0.000001 -60.520000
0.914616 17.156461 1.679643 19.103568 -33.527476 -6.021478 -8.301983 0.333311 7.016601 -17.945420 -23.645969 -9.617422 -4.523699 -0.971251 -0.167640 -1.196927 -7.823224 13.104151 -1.849400 -0.000000 -40.144800 12.334725 0.321043 -5.237271 -19.806266 -40.052933 6.599514 -0.100345 0.021117 1.094495 -4.680084 -28.316471 6.850292 -8.791100 0.000000 -60.744200
